<svg width="92" height="90" viewBox="0 0 92 90" fill="none" xmlns="http://www.w3.org/2000/svg">
<path d="M25.9199 0C33.7598 0 39.9997 2.28001 44.6396 6.83984C48.9299 10.9822 51.2372 16.5271 51.5605 23.4736C50.0892 23.1635 48.5636 23 47 23C44.8356 23 42.7443 23.3131 40.7686 23.8955C40.5533 19.569 39.2434 16.2033 36.8398 13.7998C34.2799 11.0799 30.6398 9.71973 25.9199 9.71973C21.2 9.71974 17.4798 11.0798 14.7598 13.7998C12.1198 16.4398 10.7998 20.2402 10.7998 25.2002V64.7998C10.7998 69.7598 12.1198 73.6003 14.7598 76.3203C17.4797 78.9603 21.2 80.2803 25.9199 80.2803C30.6398 80.2803 34.2799 78.9602 36.8398 76.3203C39.2435 73.8438 40.5534 70.438 40.7686 66.1045C42.7443 66.6869 44.8356 67 47 67C48.5636 67 50.0892 66.8365 51.5605 66.5264C51.2373 73.4788 48.9301 79.0638 44.6396 83.2803C39.9997 87.7601 33.7597 90 25.9199 90C17.92 90 11.5999 87.7602 6.95996 83.2803C2.31996 78.8003 0 72.6398 0 64.7998V25.2002C0 17.3602 2.31996 11.1997 6.95996 6.71973C11.5999 2.23982 17.92 1.4954e-05 25.9199 0ZM66.0312 0C74.0311 0 80.3512 2.23996 84.9912 6.71973C89.6312 11.1997 91.9512 17.3602 91.9512 25.2002V64.7998C91.9512 72.6398 89.6312 78.8003 84.9912 83.2803C80.3512 87.76 74.0311 90 66.0312 90C58.1915 89.9999 51.9514 87.7602 47.3115 83.2803C47.2065 83.177 47.1027 83.0727 47 82.9678C49.6506 79.8031 51.3986 76.0578 52.2783 71.7803C52.9354 73.5373 53.8794 75.051 55.1113 76.3203C57.6713 78.9602 61.3115 80.2802 66.0312 80.2803C70.7511 80.2803 74.4714 78.9601 77.1914 76.3203C79.8314 73.6003 81.1514 69.7598 81.1514 64.7998V25.2002C81.1514 20.2402 79.8314 16.4398 77.1914 13.7998C74.4714 11.0799 70.7511 9.71973 66.0312 9.71973C61.3114 9.7198 57.6713 11.0799 55.1113 13.7998C53.8814 15.0297 52.9382 16.5117 52.2812 18.2451C51.4041 13.9823 49.6596 10.2624 47.0098 7.13672C47.1092 7.03697 47.2098 6.93802 47.3115 6.83984C51.9514 2.27993 58.1914 7.61782e-05 66.0312 0ZM47 25C58.0457 25 67 33.9543 67 45C67 56.0457 58.0457 65 47 65C35.9543 65 27 56.0457 27 45C27 33.9543 35.9543 25 47 25Z" fill="white"/>
</svg>
